:SAMPLES-PER-SECOND 30
:FULLY-SPECIFIED
:DEGREES
208
root  35.18592354 36.47194509 -14.92856394 8.899125099 -10.47737694 5.71930933
lowerback  -7.080840588 -1.696810126 -0.5996010303
upperback  -3.526347876 -1.747879982 -4.573480129
thorax  0.1963610053 -0.7192767859 -4.517809868
lowerneck  2.098089933 -19.2961998 -12.25769997
upperneck  3.135069847 -26.61740112 14.16240025
head  4.113059998 -13.13930035 4.508220196
lclavicle  0 -4.497500157e-015 -2.743230041e-014
lhumerus  -49.10720062 27.27840042 61.32699966
lradius  5.228657756e-007 -6.507048965e-006 30.18380165
lwrist  4.824992743e-007 -3.790274832e-007 -28.96689987
lhand  -4.445301581e-031 -37.40610123 -10.61030006
lfingers  90 7.125020027 -90
lthumb  95.03889657 -25.42898564 101.6039999
rclavicle  0 -4.497500157e-015 -2.743230041e-014
rhumerus  -4.224618435 -37.02639771 7.200026512
rradius  -5.16745672e-007 2.214343908e-008 39.37049866
rwrist  -0.0001064338358 0.02974390797 -169.6119995
rhand  -1.771034257e-031 4.505040169 -7.966340065
rfingers  -90 -7.125020027 -90
rthumb  -85.2685288 -8.163959088 -59.76434818
rfemur  -15.02846718 16.45173073 9.413432121
rtibia  -2.031553507 -3.389506578 22.74015427
rfoot  0.1656309962 -24.81284142 -31.77255821
rtoes  3.838980138 19.6429218 -101.288929
lfemur  -9.527957916 -18.33180809 -23.5806427
ltibia  2.692183256 -4.484449387 15.91502953
lfoot  1.743742943 -18.16403008 41.30373001
ltoes  -8.627735139 -18.11248621 -116.01532
209
root  35.18379392 36.47377435 -14.93006128 8.896651268 -10.45988369 5.714082718
lowerback  -7.0735569 -1.691126704 -0.5869145393
upperback  -3.526429892 -1.748200059 -4.570839882
thorax  0.195175007 -0.7180432677 -4.522540092
lowerneck  2.080970049 -19.26469994 -12.23449993
upperneck  3.143260002 -26.5719986 14.15219975
head  4.108119965 -13.11620045 4.507289886
lclavicle  0 -4.497500157e-015 -2.743230041e-014
lhumerus  -49.06809998 27.02669907 61.54349899
lradius  5.228657756e-007 -6.507048965e-006 30.3635006
lwrist  4.824992743e-007 -3.790274832e-007 -28.65509987
lhand  -0 -37.41360092 -10.57089996
lfingers  90 7.125020027 -90
lthumb  95.03366435 -25.39014269 101.6083227
rclavicle  0 -4.497500157e-015 -2.743230041e-014
rhumerus  -4.378232479 -37.20610046 7.177163124
rradius  -5.16745672e-007 2.214343908e-008 39.54119873
rwrist  -0.0001064338358 0.02974390797 -169.4830017
rhand  -1.770990629e-031 4.487090111 -7.898560047
rfingers  -90 -7.125020027 -90
rthumb  -85.23808625 -8.221285282 -59.77697661
rfemur  -15.02608681 16.46379852 9.429745674
rtibia  -2.033991814 -3.3670156 22.7491436
rfoot  0.1586391777 -24.77381134 -31.80585861
rtoes  3.845390409 19.6417156 -101.3079988
lfemur  -9.469749451 -18.25570488 -23.58863831
ltibia  2.729633808 -4.426070213 15.83869934
lfoot  1.766610146 -18.24310493 41.32659149
ltoes  -8.676498845 -18.08978562 -116.1722702
210
root  35.18210884 36.47374731 -14.93127027 8.890853882 -10.44595242 5.700963974
lowerback  -7.087573051 -1.689190388 -0.5770048499
upperback  -3.524580002 -1.73890996 -4.562670231
thorax  0.2054889947 -0.7167812586 -4.519320011
lowerneck  1.96886003 -19.27589989 -12.30290031
upperneck  3.314630032 -26.59480095 14.10610008
head  4.182819843 -13.12010002 4.47840023
lclavicle  0 -4.497500157e-015 -2.743230041e-014
lhumerus  -49.04940033 27.13089943 61.50379944
lradius  5.228657756e-007 -6.507048965e-006 30.33739853
lwrist  4.824992743e-007 -3.790274832e-007 -28.78380013
lhand  -4.443487325e-031 -37.37549973 -10.68400002
lfingers  90 7.125020027 -90
lthumb  95.0409921 -25.50240271 101.57837
rclavicle  0 -4.497500157e-015 -2.743230041e-014
rhumerus  -4.490422249 -37.51089859 7.124182224
rradius  -5.16745672e-007 2.214343908e-008 39.65750122
rwrist  -0.0001064338358 0.02974390797 -169.5319977
rhand  -1.770923262e-031 4.459229946 -7.887710094
rfingers  -90 -7.125020027 -90
rthumb  -85.23881686 -8.228764604 -59.80331655
rfemur  -15.00128365 16.44473267 9.44469738
rtibia  -2.021907091 -3.375938177 22.72262573
rfoot  0.1685700864 -24.80408478 -31.80195808
rtoes  3.827904111 19.64500098 -101.2559817
lfemur  -9.478606224 -18.34100533 -23.56691551
ltibia  2.71193552 -4.458164215 15.87193871
lfoot  1.760694742 -18.18349838 41.35018539
ltoes  -8.700934684 -18.0783498 -116.2509908
211
root  35.18070611 36.47182495 -14.93196863 8.867444038 -10.42612267 5.690023899
lowerback  -7.105080128 -1.688509941 -0.5774388909
upperback  -3.537019968 -1.738989949 -4.547460079
thorax  0.2029570043 -0.7155277133 -4.501540184
lowerneck  1.931130052 -19.26339912 -12.33860016
upperneck  3.402549982 -26.58230209 14.07789993
head  4.214489937 -13.11149979 4.467830181
lclavicle  0 -4.497500157e-015 -2.743230041e-014
lhumerus  -49.01789856 27.27569962 61.42810059
lradius  5.228657756e-007 -6.507048965e-006 30.2385025
lwrist  4.824992743e-007 -3.790274832e-007 -28.92359924
lhand  -4.443185217e-031 -37.37039948 -10.66049957
lfingers  90 7.125020027 -90
lthumb  95.03337464 -25.47951702 101.5706858
rclavicle  0 -4.497500157e-015 -2.743230041e-014
rhumerus  -4.586160183 -38.22040558 6.909740925
rradius  -5.16745672e-007 2.214343908e-008 39.93780136
rwrist  -0.0001064338358 0.02974390797 -169.2120056
rhand  -3.541852744e-031 4.460519791 -7.899250031
rfingers  -90 -7.125020027 -90
rthumb  -85.24437172 -8.218890835 -59.80282813
rfemur  -14.96839619 16.39236641 9.457569122
rtibia  -2.013547421 -3.411170006 22.70839882
rfoot  0.1850348115 -24.90214539 -31.72822571
rtoes  3.84332491 19.64210449 -101.301854
lfemur  -9.443232536 -18.3192482 -23.55939674
ltibia  2.714781523 -4.433858395 15.86117554
lfoot  1.772101283 -18.2297287 41.36450577
ltoes  -8.711290537 -18.07349113 -116.284367
212
root  35.17966383 36.47091483 -14.93270754 8.878686905 -10.4129076 5.674659729
lowerback  -7.081019878 -1.687849998 -0.5822999477
upperback  -3.54204011 -1.739439964 -4.544809818
thorax  0.1844819933 -0.7143192887 -4.498410225
lowerneck  1.895820022 -19.24810028 -12.32999992
upperneck  3.474460125 -26.56150055 14.02470016
head  4.23059988 -13.09959984 4.44878006
lclavicle  0 -4.497500157e-015 -2.743230041e-014
lhumerus  -49.02099991 27.52289963 61.31999969
lradius  5.228657756e-007 -6.507048965e-006 30.1644001
lwrist  4.824992743e-007 -3.790274832e-007 -29.19470024
lhand  -4.443108176e-031 -37.36909866 -10.60400009
lfingers  90 7.125020027 -90
lthumb  95.02018902 -25.42417991 101.56385
rclavicle  0 -4.497500157e-015 -2.743230041e-014
rhumerus  -4.683479309 -38.94750214 6.743619919
rradius  -5.16745672e-007 2.214343908e-008 40.11589813
rwrist  -0.0001064338358 0.02974390797 -169.2259979
rhand  -1.770856439e-031 4.431419849 -7.874579906
rfingers  -90 -7.125020027 -90
rthumb  -85.23837099 -8.238225419 -59.82938974
rfemur  -14.97164249 16.4077549 9.466050148
rtibia  -2.00734973 -3.414205074 22.69787025
rfoot  0.1735011488 -24.9219265 -31.76394272
rtoes  3.858956542 19.639156 -101.3483602
lfemur  -9.490133286 -18.29311562 -23.51495361
ltibia  2.682456017 -4.398598194 15.90296459
lfoot  1.780172467 -18.3223629 41.36854553
ltoes  -8.700289066 -18.07865246 -116.2489103
213
root  35.17969086 36.4701669 -14.93426796 8.888051033 -10.42075443 5.657637596
lowerback  -7.068109989 -1.676579952 -0.5871191025
upperback  -3.538029909 -1.724660039 -4.540437698
thorax  0.1828259975 -0.7131928205 -4.497023582
lowerneck  1.834509969 -19.23719978 -12.31779957
upperneck  3.571059942 -26.54750252 13.98209953
head  4.260270119 -13.08850002 4.42730999
lclavicle  0 -4.497500157e-015 -2.743230041e-014
lhumerus  -48.9355011 27.20829964 61.52299881
lradius  5.228657756e-007 -6.507048965e-006 30.27739716
lwrist  4.824992743e-007 -3.790274832e-007 -28.82019997
lhand  -4.444388229e-031 -37.39070129 -10.55819988
lfingers  90 7.125020027 -90
lthumb  95.02010057 -25.37856799 101.5825289
rclavicle  0 -4.497500157e-015 -2.743230041e-014
rhumerus  -4.884117603 -39.21659851 6.70872736
rradius  -5.16745672e-007 2.214343908e-008 40.30879974
rwrist  -0.0001064338358 0.02974390797 -169.3249969
rhand  -1.770892478e-031 4.44644022 -7.972280025
rfingers  -90 -7.125020027 -90
rthumb  -85.28466239 -8.154743993 -59.82188259
rfemur  -14.9763155 16.45551682 9.48426342
rtibia  -2.004153252 -3.367139339 22.68610954
rfoot  0.1716528982 -24.82153702 -31.8324585
rtoes  3.867786116 19.63748502 -101.3746323
lfemur  -9.573968887 -18.22312164 -23.4557972
ltibia  2.626094103 -4.38463068 16.00281906
lfoot  1.781547427 -18.40384674 41.31339645
ltoes  -8.665162904 -18.09507707 -116.1357675
